<svg xmlns="http://www.w3.org/2000/svg" width="30.577" height="30.687" viewBox="0 0 30.577 30.687">
  <path id="social-media" d="M29.7,13.053h0L17.456.808a2.762,2.762,0,0,0-3.9,0L1.316,13.042l-.012.011a2.761,2.761,0,0,0,1.838,4.708h.573v9a3.236,3.236,0,0,0,3.238,3.244h4.783a.879.879,0,0,0,.879-.879V22.064a1.476,1.476,0,0,1,1.475-1.475h2.825a1.476,1.476,0,0,1,1.475,1.475v7.062a.879.879,0,0,0,.879.879h4.788a3.236,3.236,0,0,0,3.233-3.233v-9h.45a2.764,2.764,0,0,0,1.951-4.714Zm-1.245,2.662a1,1,0,0,1-.71.3H26.413a.879.879,0,0,0-.879.879v9.888a1.476,1.476,0,0,1-1.475,1.475h-3.9V22.064a3.236,3.236,0,0,0-3.233-3.233H14.092a3.238,3.238,0,0,0-3.238,3.233v6.183h-3.9a1.476,1.476,0,0,1-1.475-1.475V16.885a.879.879,0,0,0-.879-.879H3.249a1,1,0,0,1-.692-1.713h0L14.8,2.052a1,1,0,0,1,1.419,0L28.454,14.289h0a1.007,1.007,0,0,1,0,1.419Zm0,0" transform="translate(-0.211 0.43)" fill="#d97c2b" stroke="#d97c2b" stroke-width="0.5"/>
</svg>
